<svg width="41" height="48" viewBox="0 0 41 48" fill="none" xmlns="http://www.w3.org/2000/svg">
<path d="M40.526 40.5606L24.5392 1.2002H23.5605L7.47498 40.4699C7.26697 40.9793 9.11499 41.7366 9.323 41.2273L24.0432 5.2909L38.6727 41.3126C38.8327 41.702 40.734 41.0726 40.526 40.5606Z" fill="#5BB4E6"/>
<path d="M7.66675 6.43911C2.9547 10.8232 0 17.0712 0 23.9993C0 30.986 3.00536 37.2794 7.78675 41.6715C7.96808 41.8368 7.65608 38.7168 7.33608 38.3434C4.01337 34.4874 2.00002 29.474 2.00002 23.9993C2.00002 18.5219 4.01337 13.5112 7.33608 9.65514C7.65608 9.28447 7.88541 6.23377 7.66675 6.43911Z" fill="#5BB4E6"/>
<path d="M40.3446 6.42673C35.8912 2.28269 30.0885 0 24.0004 0C17.9123 0 12.1096 2.28269 7.65622 6.42673C7.25089 6.80274 8.61357 8.26675 9.01891 7.89075C12.8563 4.32004 17.787 2.25869 23.0004 2.02402V47.0005C23.0004 47.5525 25.0004 47.5525 25.0004 47.0005V2.02402C30.2138 2.25869 35.1445 4.32004 38.9846 7.89075C39.1766 8.06942 39.4219 8.16008 39.6646 8.16008C39.9312 8.16008 40.7499 6.80274 40.3446 6.42673Z" fill="#A2C72C"/>
<path d="M39.6644 6.19944C39.1124 6.19944 38.6644 6.64745 38.6644 7.19945V40.3865C34.627 44.0078 29.4376 46.0025 23.9976 46.0025C18.5602 46.0025 13.3708 44.0078 9.33343 40.3865V7.19679C9.33343 6.64478 8.88542 6.19678 8.33342 6.19678C7.78141 6.19678 7.3334 6.64478 7.3334 7.19679V40.8478C7.3334 41.1945 7.50941 41.4985 7.77874 41.6771C12.2161 45.7545 17.9682 47.9999 24.0002 47.9999C30.0323 47.9999 35.787 45.7519 40.2217 41.6745C40.4884 41.4958 40.6644 41.1918 40.6644 40.8451V7.19679C40.6644 6.64478 40.2164 6.19944 39.6644 6.19944Z" fill="#363F46"/>
</svg>
